<svg width="300" height="300" viewBox="0 0 300 300" fill="none" xmlns="http://www.w3.org/2000/svg">
<rect width="300" height="300" fill="#D9D9D9"/>
<path d="M116.464 127.573C118.431 124.502 122.918 124.502 124.885 127.573L174.352 204.803C176.484 208.131 174.094 212.5 170.142 212.5H71.207C67.2549 212.5 64.865 208.131 66.9966 204.803L116.464 127.573Z" fill="white"/>
<path d="M175.314 139.39C177.314 136.703 181.337 136.703 183.337 139.39L231.991 204.765C234.445 208.063 232.091 212.75 227.979 212.75H130.672C126.56 212.75 124.206 208.063 126.661 204.765L175.314 139.39Z" fill="white"/>
<line x1="71.5349" y1="208" x2="228.465" y2="208" stroke="white" stroke-width="10" stroke-linecap="round"/>
<circle cx="209" cy="111" r="10" fill="white"/>
<mask id="path-6-inside-1_1_12" fill="white">
<rect x="50" y="50" width="200" height="200" rx="5"/>
</mask>
<rect x="50" y="50" width="200" height="200" rx="5" stroke="white" stroke-width="20" mask="url(#path-6-inside-1_1_12)"/>
</svg>
